<svg xmlns="http://www.w3.org/2000/svg" viewBox="0 0 900 530"><defs><linearGradient id="bg" x1="0" y1="0" x2="1" y2="1"><stop stop-color="#fff9e3"/><stop offset=".52" stop-color="#edf9fa"/><stop offset="1" stop-color="#d6f1f2"/></linearGradient></defs><rect width="900" height="530" rx="24" fill="url(#bg)"/><circle cx="770" cy="90" r="160" fill="#fff" opacity=".55"/><path d="M80 113l92-45-22 65-22-25z" fill="#19c2d1" opacity=".75"/><rect x="88" y="78" width="250" height="206" rx="18" fill="#fff" stroke="#c8e6ef" stroke-width="5"/><text x="119" y="129" font-family="Arial,sans-serif" font-size="22" font-weight="700" fill="#0f2d52">Mi proyecto de vida</text><rect x="119" y="148" width="180" height="9" rx="5" fill="#b5d9e5"/><rect x="119" y="170" width="153" height="9" rx="5" fill="#b5d9e5"/><path d="M121 234l36-35 30 26 41-46 54 55" stroke="#1e7fbc" stroke-width="9" fill="none" stroke-linejoin="round"/><circle cx="590" cy="154" r="70" fill="#f0b68e"/><path d="M518 155c-18-88 123-129 143-37 3 16 2 29-1 45-28-31-53-47-88-38-15 4-33 18-54 30" fill="#243b4d"/><path d="M430 361c22-89 88-139 159-139 79 0 142 55 158 139l33 169H403z" fill="#19a3ba"/><path d="M530 239l60 66 59-66" fill="#fff" opacity=".8"/><circle cx="378" cy="216" r="60" fill="#dca47f"/><path d="M320 216c-22-88 105-105 123-26-24-21-53-33-81-18-11 5-27 24-42 44" fill="#0f2d52"/><path d="M276 361c17-70 54-93 102-93 46 0 88 29 109 93l34 169H243z" fill="#1e7fbc"/><rect x="244" y="360" width="515" height="21" rx="10" fill="#a8c8d8"/><path d="M214 451h568" stroke="#0f2d52" stroke-width="16" stroke-linecap="round"/><path d="M380 345l110-20 80 35-111 21z" fill="#fff" stroke="#8fbcd0" stroke-width="5"/><path d="M490 325l-6 37" stroke="#8fbcd0" stroke-width="4"/><circle cx="804" cy="156" r="32" fill="#ffd200"/><path d="M804 136v27m-12-14h24" stroke="#fff" stroke-width="7" stroke-linecap="round"/><text x="88" y="49" font-family="Arial,sans-serif" font-size="24" font-weight="700" fill="#0f2d52">Aprendizajes con sentido</text></svg>